<?xml version="1.0" encoding="UTF-8" standalone="no"?>
<!DOCTYPE svg PUBLIC "-//W3C//DTD SVG 1.1//EN" "http://www.w3.org/Graphics/SVG/1.1/DTD/svg11.dtd">
<svg width="100%" height="100%" viewBox="0 0 700 700" version="1.1" xmlns="http://www.w3.org/2000/svg" xmlns:xlink="http://www.w3.org/1999/xlink" xml:space="preserve" xmlns:serif="http://www.serif.com/" style="fill-rule:evenodd;clip-rule:evenodd;stroke-linejoin:round;stroke-miterlimit:2;">
    <path d="M700,0L700,700L0,700L0,0L700,0ZM272.561,136.933C272.561,128.728 272.561,126.168 286.149,126.135L453.826,126.135C483.298,126.135 499.216,149.995 509.719,197.945L520.483,235.393L549.726,235.393C552.549,128.728 555.109,83.6 555.109,83.6C555.109,83.6 483.331,91.28 440.764,91.28L227.434,91.28L115.386,88.983L115.386,118.225L152.571,126.102C179.484,131.484 187.426,136.867 187.426,160.727C187.426,160.727 190.249,232.8 190.249,352.527C190.249,472.55 187.426,544.59 187.426,544.59C187.426,565.89 179.484,573.832 152.571,579.215L115.386,587.42L115.386,616.4L229.994,613.84L422.056,613.84C464.624,613.84 565.906,616.4 565.906,616.4C568.466,589.98 581.791,472.55 584.614,459.225L557.701,459.225L528.721,523.322C507.159,573.832 472.566,576.655 437.941,576.655L325.894,576.655C288.709,576.655 272.561,563.067 272.561,531.265L272.561,365.885C272.561,365.885 352.576,365.885 379.226,368.707C400.526,371.267 411.291,376.683 419.234,403.333L427.176,440.78L459.241,440.78L456.419,344.88L461.801,251.277L429.999,251.277L419.234,294.108C413.851,323.35 408.469,326.173 379.226,331.293C342.041,334.115 272.561,334.115 272.561,334.115L272.561,136.933Z"/>
</svg>
