<?xml version="1.0" encoding="UTF-8" standalone="no"?>
<!DOCTYPE svg PUBLIC "-//W3C//DTD SVG 1.1//EN" "http://www.w3.org/Graphics/SVG/1.1/DTD/svg11.dtd">
<svg width="100%" height="100%" viewBox="0 0 220 430" version="1.1" xmlns="http://www.w3.org/2000/svg" xmlns:xlink="http://www.w3.org/1999/xlink" xml:space="preserve" xmlns:serif="http://www.serif.com/" style="fill-rule:evenodd;clip-rule:evenodd;stroke-linejoin:round;stroke-miterlimit:2;">
    <g transform="matrix(1,0,0,1,-6.37914,-9.394065)">
        <g transform="matrix(1,0,0,1,-17.240495,-54.042098)">
            <g transform="matrix(0.963636,0,0,0.963636,-260.800133,-10.763838)">
                <path d="M378.114,157.211C378.007,156.997 377.766,156.884 377.533,156.94C377.3,156.995 377.135,157.203 377.135,157.442C377.133,163.324 377.133,179.218 377.133,184.925C377.133,185.475 376.915,186.003 376.525,186.392C376.136,186.781 375.608,187 375.058,187C368.737,187 350.152,187 350.152,187C319.797,187 295.153,162.355 295.153,132C295.153,101.645 319.797,77 350.152,77C350.152,77 368.737,77 375.058,77C376.204,77 377.133,77.929 377.133,79.075C377.133,84.782 377.133,100.676 377.133,106.558C377.134,106.798 377.299,107.006 377.533,107.062C377.767,107.117 378.008,107.005 378.116,106.79C387.262,89.101 405.729,77 427,77C457.333,77 481.964,101.608 482,131.933L482,132C482,132 482,174.903 482,184.925C482,186.071 481.071,187 479.925,187C473.551,187 454.306,187 447.932,187C447.382,187 446.854,186.781 446.465,186.392C446.075,186.003 445.857,185.475 445.857,184.925C445.857,174.903 445.857,132 445.857,132L445.857,131.933C445.821,121.556 437.385,113.143 427,113.143C416.592,113.143 408.143,121.592 408.143,132C408.143,142.356 416.508,150.773 426.844,150.857L427,150.857C427,150.857 432.97,150.857 436.236,150.857C437.382,150.857 438.311,151.786 438.311,152.933C438.311,159.306 438.311,178.551 438.311,184.925C438.311,185.475 438.093,186.003 437.703,186.392C437.314,186.781 436.786,187 436.236,187C432.97,187 427,187 427,187L426.844,187C405.639,186.941 387.24,174.856 378.114,157.211ZM374.842,114.516C374.95,114.199 374.899,113.85 374.704,113.578C374.51,113.306 374.196,113.144 373.861,113.144C368.489,113.143 350.152,113.143 350.152,113.143C339.745,113.143 331.295,121.592 331.295,132C331.295,142.408 339.745,150.857 350.152,150.857C350.152,150.857 368.489,150.857 373.861,150.857C374.196,150.857 374.51,150.695 374.705,150.423C374.9,150.15 374.951,149.801 374.843,149.484C372.999,143.99 372,138.111 372,132C372,125.889 372.999,120.01 374.842,114.516Z"/>
            </g>
        </g>
        <g transform="matrix(1,0,0,1,-17.240495,-54.042098)">
            <g transform="matrix(0.963636,0,0,-0.963636,-221.11746,356.076828)">
                <path d="M374.842,149.485C374.903,149.662 374.864,149.857 374.74,149.997C374.617,150.136 374.428,150.199 374.245,150.161C365.822,148.272 359.519,140.744 359.519,131.755C359.519,131.755 359.519,90.909 359.519,81.151C359.519,80.005 358.59,79.075 357.443,79.075C351.07,79.075 331.825,79.075 325.451,79.075C324.305,79.075 323.376,80.005 323.376,81.151C323.376,90.909 323.376,131.755 323.376,131.755C323.376,161.394 346.87,185.588 376.235,186.714C376.795,186.731 377.339,186.521 377.741,186.131C378.144,185.741 378.371,185.205 378.371,184.644C378.376,179.247 378.376,164.994 378.376,159.715C378.377,159.479 378.536,159.274 378.764,159.215C378.992,159.155 379.231,159.257 379.347,159.462C388.832,175.876 406.553,186.944 426.844,187L427,187L436.236,187C436.786,187 437.314,186.781 437.703,186.392C438.093,186.003 438.311,185.475 438.311,184.925C438.311,178.551 438.311,159.306 438.311,152.933C438.311,151.786 437.382,150.857 436.236,150.857C432.97,150.857 427,150.857 427,150.857L426.844,150.857C416.508,150.773 408.143,142.356 408.143,132C408.143,121.592 416.592,113.143 427,113.143C437.385,113.143 445.821,121.556 445.857,131.933L445.857,132C445.857,132 445.857,212.405 445.857,226.434C445.857,227.58 446.786,228.509 447.932,228.509C454.306,228.509 473.551,228.509 479.925,228.509C480.475,228.509 481.003,228.291 481.392,227.902C481.781,227.512 482,226.984 482,226.434C482,212.405 482,132 482,132L482,131.933C481.964,101.608 457.333,77 427,77C396.645,77 372,101.645 372,132C372,138.111 372.999,143.991 374.842,149.485Z"/>
            </g>
        </g>
        <g transform="matrix(1,0,0,1,-17.240495,-54.042098)">
            <g transform="matrix(0.963636,0,0,0.963636,-266.633258,313.222907)">
                <path d="M426.844,187C396.56,186.916 372,162.303 372,132C372,101.645 396.645,77 427,77C457.333,77 481.964,101.608 482,131.933L482,132C482,132 482,174.903 482,184.925C482,186.071 481.071,187 479.925,187C473.551,187 454.306,187 447.932,187C447.382,187 446.854,186.781 446.465,186.392C446.075,186.003 445.857,185.475 445.857,184.925C445.857,174.903 445.857,132 445.857,132C445.857,131.978 445.857,131.955 445.857,131.933C445.821,121.556 437.385,113.143 427,113.143C416.592,113.143 408.143,121.592 408.143,132C408.143,142.356 416.508,150.773 426.844,150.857C426.896,150.857 426.948,150.857 427,150.857C427,150.857 432.97,150.857 436.236,150.857C437.382,150.857 438.311,151.786 438.311,152.933C438.311,159.306 438.311,178.551 438.311,184.925C438.311,185.475 438.093,186.003 437.703,186.392C437.314,186.781 436.786,187 436.236,187C432.97,187 427,187 427,187C426.948,187 426.896,187 426.844,187Z"/>
            </g>
        </g>
        <g transform="matrix(1,0,0,1,-17.240495,-54.042098)">
            <g transform="matrix(0.963636,0,0,0.963636,-267.455338,207.014081)">
                <path d="M372,132L372,131.924C372.041,101.604 396.67,77 427,77C457.33,77 481.959,101.604 482,131.924L482,132L482,183.131C482,184.278 481.071,185.207 479.925,185.207C473.551,185.207 454.306,185.207 447.933,185.207C446.786,185.207 445.857,184.278 445.857,183.131C445.857,173.313 445.857,132 445.857,132C445.857,131.975 445.857,131.949 445.857,131.924C445.816,121.551 437.382,113.143 427,113.143C416.618,113.143 408.184,121.551 408.143,131.924C408.143,131.949 408.143,131.975 408.143,132C408.143,132 408.143,173.313 408.143,183.131C408.143,184.278 407.214,185.207 406.067,185.207C399.694,185.207 380.449,185.207 374.075,185.207C372.929,185.207 372,184.278 372,183.131C372,173.313 372,132 372,132Z"/>
            </g>
        </g>
        <g transform="matrix(1,0,0,1,-17.240495,-54.042098)">
            <g transform="matrix(1,0,0,1,27,-17)">
                <circle cx="41" cy="269" r="19"/>
            </g>
        </g>
        <g transform="matrix(1,0,0,1,-17.240495,-54.042098)">
            <g transform="matrix(1.02437,0,0,1.001832,-1.588299,-1.22094)">
                <path d="M83.048,281.002C84.126,281.002 85,281.896 85,282.998C85,296.12 85,369.884 85,383.005C85,384.108 84.126,385.002 83.048,385.002C77.052,385.002 58.948,385.002 52.952,385.002C51.874,385.002 51,384.108 51,383.005C51,369.884 51,296.12 51,282.998C51,281.896 51.874,281.002 52.952,281.002C58.948,281.002 77.052,281.002 83.048,281.002Z"/>
            </g>
        </g>
        <g transform="matrix(1,0,0,1,-17.240495,-54.042098)">
            <g transform="matrix(1.02437,0,0,1.370069,150.517906,-35.423644)">
                <path d="M83.048,282C84.126,282 85,282.654 85,283.46C85,293.236 85,349.558 85,374.322C85,377.419 83.354,380.389 80.425,382.58C77.496,384.77 73.523,386 69.381,386C62.914,386 56.18,386 52.952,386C51.874,386 51,385.346 51,384.54C51,372.888 51,295.112 51,283.46C51,282.654 51.874,282 52.952,282C58.948,282 77.052,282 83.048,282Z"/>
            </g>
        </g>
    </g>
</svg>
